<svg xmlns="http://www.w3.org/2000/svg" xmlns:xlink="http://www.w3.org/1999/xlink" width="440.104" height="378.134" viewBox="0 0 440.104 378.134">
  <defs>
    <clipPath id="clip-path">
      <path id="Vector_36" data-name="Vector 36" d="M341.837,151.62c-13.129,49.48-59.922,148.44-142.065,148.44C97.093,300.06,13.083,264.543,1.245,173.02S65.9,104.492,66.586,62.146s33.923-76.269,75.586-56.234,67.162,49.859,94.938,60.332,96.3-8.2,104.728,25.727C348.576,119.108,344.645,143.044,341.837,151.62Z" transform="translate(76.376 0) rotate(14.746)" fill="#0b56fa"/>
    </clipPath>
  </defs>
  <g id="Groupe_79" data-name="Groupe 79" transform="translate(-931.514 -589.403)">
    <g id="Mask_Group" data-name="Mask Group" transform="translate(961.064 589.403)" opacity="0.74">
      <g id="Vector_36-2" data-name="Vector 36" transform="translate(0)" clip-path="url(#clip-path)">
        <g id="Group_3444" data-name="Group 3444" transform="translate(-108.591 -76.403)">
          <rect id="Rectangle_212" data-name="Rectangle 212" width="561.275" height="3.734" transform="translate(161.846) rotate(36.82)" fill="rgba(37,53,106,0.05)"/>
          <rect id="Rectangle_213" data-name="Rectangle 213" width="561.275" height="3.734" transform="translate(155.879 7.969) rotate(36.82)" fill="rgba(37,53,106,0.05)"/>
          <rect id="Rectangle_214" data-name="Rectangle 214" width="561.275" height="3.734" transform="translate(149.911 15.939) rotate(36.82)" fill="rgba(37,53,106,0.05)"/>
          <rect id="Rectangle_215" data-name="Rectangle 215" width="561.275" height="3.734" transform="translate(143.944 23.909) rotate(36.82)" fill="rgba(37,53,106,0.05)"/>
          <rect id="Rectangle_216" data-name="Rectangle 216" width="561.275" height="3.734" transform="translate(137.977 31.879) rotate(36.82)" fill="rgba(37,53,106,0.05)"/>
          <rect id="Rectangle_217" data-name="Rectangle 217" width="561.275" height="3.734" transform="translate(132.011 39.849) rotate(36.82)" fill="rgba(37,53,106,0.05)"/>
          <rect id="Rectangle_218" data-name="Rectangle 218" width="561.275" height="3.734" transform="translate(126.044 47.82) rotate(36.82)" fill="rgba(37,53,106,0.05)"/>
          <rect id="Rectangle_219" data-name="Rectangle 219" width="561.275" height="3.734" transform="translate(120.079 55.79) rotate(36.82)" fill="rgba(37,53,106,0.05)"/>
          <rect id="Rectangle_220" data-name="Rectangle 220" width="561.275" height="3.734" transform="translate(114.111 63.76) rotate(36.82)" fill="rgba(37,53,106,0.05)"/>
          <rect id="Rectangle_221" data-name="Rectangle 221" width="561.275" height="3.734" transform="translate(108.144 71.73) rotate(36.82)" fill="rgba(37,53,106,0.05)"/>
          <rect id="Rectangle_222" data-name="Rectangle 222" width="561.275" height="3.734" transform="translate(102.179 79.7) rotate(36.82)" fill="rgba(37,53,106,0.05)"/>
          <rect id="Rectangle_223" data-name="Rectangle 223" width="561.275" height="3.734" transform="translate(96.211 87.67) rotate(36.82)" fill="rgba(37,53,106,0.05)"/>
          <rect id="Rectangle_224" data-name="Rectangle 224" width="561.275" height="3.734" transform="translate(90.244 95.64) rotate(36.82)" fill="rgba(37,53,106,0.05)"/>
          <rect id="Rectangle_225" data-name="Rectangle 225" width="561.275" height="3.734" transform="translate(84.279 103.61) rotate(36.82)" fill="rgba(37,53,106,0.05)"/>
          <rect id="Rectangle_226" data-name="Rectangle 226" width="561.275" height="3.734" transform="translate(78.311 111.581) rotate(36.82)" fill="rgba(37,53,106,0.05)"/>
          <rect id="Rectangle_227" data-name="Rectangle 227" width="561.275" height="3.734" transform="translate(72.344 119.551) rotate(36.82)" fill="rgba(37,53,106,0.05)"/>
          <rect id="Rectangle_228" data-name="Rectangle 228" width="561.275" height="3.734" transform="translate(66.379 127.521) rotate(36.82)" fill="rgba(37,53,106,0.05)"/>
          <rect id="Rectangle_229" data-name="Rectangle 229" width="561.275" height="3.734" transform="translate(60.411 135.491) rotate(36.82)" fill="rgba(37,53,106,0.05)"/>
          <rect id="Rectangle_230" data-name="Rectangle 230" width="561.275" height="3.734" transform="translate(54.446 143.461) rotate(36.82)" fill="rgba(37,53,106,0.05)"/>
          <rect id="Rectangle_231" data-name="Rectangle 231" width="561.275" height="3.734" transform="translate(48.479 151.431) rotate(36.82)" fill="rgba(37,53,106,0.05)"/>
          <rect id="Rectangle_232" data-name="Rectangle 232" width="561.275" height="3.734" transform="translate(42.511 159.401) rotate(36.82)" fill="rgba(37,53,106,0.05)"/>
          <rect id="Rectangle_233" data-name="Rectangle 233" width="561.275" height="3.734" transform="translate(35.798 168.368) rotate(36.82)" fill="rgba(37,53,106,0.05)"/>
          <rect id="Rectangle_234" data-name="Rectangle 234" width="561.275" height="3.734" transform="translate(29.087 177.334) rotate(36.82)" fill="rgba(37,53,106,0.05)"/>
          <rect id="Rectangle_235" data-name="Rectangle 235" width="561.275" height="3.734" transform="translate(22.374 186.3) rotate(36.82)" fill="rgba(37,53,106,0.05)"/>
          <rect id="Rectangle_236" data-name="Rectangle 236" width="561.275" height="3.734" transform="translate(15.662 195.267) rotate(36.82)" fill="rgba(37,53,106,0.05)"/>
          <rect id="Rectangle_237" data-name="Rectangle 237" width="561.275" height="3.734" transform="translate(8.949 204.233) rotate(36.82)" fill="rgba(37,53,106,0.05)"/>
          <rect id="Rectangle_238" data-name="Rectangle 238" width="561.275" height="3.734" transform="translate(2.238 213.2) rotate(36.82)" fill="rgba(37,53,106,0.05)"/>
        </g>
      </g>
    </g>
    <g id="Revenue-bro_1" data-name="Revenue-bro 1" transform="translate(933 664.086)">
      <g id="freepik_background_simple_inject_2" data-name="freepik  background simple  inject 2" transform="translate(2.98 6.108)">
        <path id="Vector" d="M199.191,7.76c-14.834,8.484-25.3,22.753-37.975,34.208a122.163,122.163,0,0,1-55.691,28.552c-17,3.678-34.752,3.732-51.129,9.517C22.445,91.248.562,124.518.012,158.346s18.695,66.622,46.982,85.167a112.605,112.605,0,0,0,31.272,14.242c20.8,5.853,42.862,5.595,64.358,3.358,37.132-3.868,76.058-24.956,99.464-54.684A213.286,213.286,0,0,0,268.355,163.3a215.128,215.128,0,0,0,19.388-80.32c.986-23.794,0-50.17-18.879-67.513A59.927,59.927,0,0,0,199.191,7.76Z" transform="translate(0 0)" fill="#92e3a9"/>
        <path id="Vector-2" data-name="Vector" d="M199.191,7.76c-14.834,8.484-25.3,22.753-37.975,34.208a122.163,122.163,0,0,1-55.691,28.552c-17,3.678-34.752,3.732-51.129,9.517C22.445,91.248.562,124.518.012,158.346s18.695,66.622,46.982,85.167a112.605,112.605,0,0,0,31.272,14.242c20.8,5.853,42.862,5.595,64.358,3.358,37.132-3.868,76.058-24.956,99.464-54.684A213.286,213.286,0,0,0,268.355,163.3a215.128,215.128,0,0,0,19.388-80.32c.986-23.794,0-50.17-18.879-67.513A59.927,59.927,0,0,0,199.191,7.76Z" transform="translate(0 0)" fill="#fff" opacity="0.7"/>
      </g>
      <g id="freepik_Shadow_inject_2" data-name="freepik  Shadow  inject 2" transform="translate(177.151 258.597)">
        <path id="Vector-3" data-name="Vector" d="M97.075,13.073c0,7.22-21.731,13.073-48.537,13.073S0,20.293,0,13.073,21.731,0,48.537,0,97.075,5.853,97.075,13.073Z" fill="#ececec"/>
      </g>
      <g id="freepik_Window_inject_2" data-name="freepik  Window  inject 2" transform="translate(28.593 0)">
        <path id="Vector-4" data-name="Vector" d="M6.084,0H149.41a6.084,6.084,0,0,1,6.084,6.084V86.432a6.084,6.084,0,0,1-6.084,6.084H6.084A6.084,6.084,0,0,1,0,86.432V6.084A6.084,6.084,0,0,1,6.084,0Z" transform="translate(0 16.907)" fill="#fff"/>
        <path id="Vector-5" data-name="Vector" d="M155.494,6.118V8.525H0V6.118A6.118,6.118,0,0,1,6.084,0H149.437a6.078,6.078,0,0,1,6.057,6.118Z" transform="translate(0 16.873)" fill="#92e3a9"/>
        <path id="Vector-6" data-name="Vector" d="M6.084,0H149.41a6.084,6.084,0,0,1,6.084,6.084V86.432a6.084,6.084,0,0,1-6.084,6.084H6.084A6.084,6.084,0,0,1,0,86.432V6.084A6.084,6.084,0,0,1,6.084,0Z" transform="translate(0 16.907)" fill="none" stroke="#263238" stroke-linecap="round" stroke-linejoin="round" stroke-width="1.52"/>
        <path id="Vector-7" data-name="Vector" d="M155.494,6.118V8.525H0V6.118A6.118,6.118,0,0,1,6.084,0H149.437a6.078,6.078,0,0,1,6.057,6.118Z" transform="translate(0 16.873)" fill="none" stroke="#263238" stroke-linecap="round" stroke-linejoin="round" stroke-width="1.52"/>
        <path id="Vector-8" data-name="Vector" d="M3.114,1.55a1.557,1.557,0,1,1-.458-1.1A1.557,1.557,0,0,1,3.114,1.55Z" transform="translate(14.351 19.599)" fill="#263238"/>
        <path id="Vector-9" data-name="Vector" d="M3.114,1.55a1.557,1.557,0,1,1-.458-1.1,1.557,1.557,0,0,1,.458,1.1Z" transform="translate(22.475 19.599)" fill="#263238"/>
        <path id="Vector-10" data-name="Vector" d="M3.114,1.557A1.557,1.557,0,1,1,1.557,0,1.557,1.557,0,0,1,3.114,1.557Z" transform="translate(30.598 19.592)" fill="#263238"/>
        <path id="Vector-11" data-name="Vector" d="M2.509,0H46.472a2.509,2.509,0,0,1,2.509,2.509V23.658a2.509,2.509,0,0,1-2.509,2.509H2.509A2.509,2.509,0,0,1,0,23.658V2.509A2.509,2.509,0,0,1,2.509,0Z" transform="translate(9.218 32.135)" fill="none" stroke="#263238" stroke-linecap="round" stroke-linejoin="round" stroke-width="1.52"/>
        <path id="Vector-12" data-name="Vector" d="M0,0H42.468" transform="translate(12.1 55.011)" fill="none" stroke="#263238" stroke-linecap="round" stroke-linejoin="round" stroke-width="1.52"/>
        <path id="Vector-13" data-name="Vector" d="M0,0H4.929V4.929H0Z" transform="translate(15.255 50.014)" fill="#92e3a9" stroke="#263238" stroke-width="1.52"/>
        <path id="Vector-14" data-name="Vector" d="M0,0H4.929V11.475H0Z" transform="translate(22.468 43.535)" fill="#92e3a9" stroke="#263238" stroke-width="1.52"/>
        <path id="Vector-15" data-name="Vector" d="M0,0H4.929V9.619H0Z" transform="translate(30.592 45.507)" fill="#92e3a9" stroke="#263238" stroke-width="1.52"/>
        <path id="Vector-16" data-name="Vector" d="M0,0H4.929V18.865H0Z" transform="translate(39.13 35.928)" fill="#92e3a9" stroke="#263238" stroke-width="1.52"/>
        <path id="Vector-17" data-name="Vector" d="M0,0H4.929V18.865H0Z" transform="translate(47.662 36.078)" fill="#92e3a9" stroke="#263238" stroke-width="1.52"/>
        <path id="Vector-18" data-name="Vector" d="M27.56,13.78A13.78,13.78,0,1,1,13.78,0,13.78,13.78,0,0,1,27.56,13.78Z" transform="translate(105.147 32.094)" fill="#92e3a9" stroke="#263238" stroke-width="1.52"/>
        <path id="Vector-19" data-name="Vector" d="M0,0H4.025" transform="translate(8.076 71.666)" fill="none" stroke="#263238" stroke-linecap="round" stroke-linejoin="round" stroke-width="1.52"/>
        <path id="Vector-20" data-name="Vector" d="M0,0H4.025" transform="translate(8.076 79.443)" fill="none" stroke="#263238" stroke-linecap="round" stroke-linejoin="round" stroke-width="1.52"/>
        <path id="Vector-21" data-name="Vector" d="M0,0H4.025" transform="translate(8.076 87.227)" fill="none" stroke="#263238" stroke-linecap="round" stroke-linejoin="round" stroke-width="1.52"/>
        <path id="Vector-22" data-name="Vector" d="M0,0H4.025" transform="translate(8.076 95.004)" fill="none" stroke="#263238" stroke-linecap="round" stroke-linejoin="round" stroke-width="1.52"/>
        <path id="Vector-23" data-name="Vector" d="M0,3.127V0" transform="translate(20.973 97.751)" fill="none" stroke="#263238" stroke-linecap="round" stroke-linejoin="round" stroke-width="1.52"/>
        <path id="Vector-24" data-name="Vector" d="M0,3.127V0" transform="translate(27.349 97.751)" fill="none" stroke="#263238" stroke-linecap="round" stroke-linejoin="round" stroke-width="1.52"/>
        <path id="Vector-25" data-name="Vector" d="M0,3.127V0" transform="translate(33.726 97.751)" fill="none" stroke="#263238" stroke-linecap="round" stroke-linejoin="round" stroke-width="1.52"/>
        <path id="Vector-26" data-name="Vector" d="M0,3.127V0" transform="translate(40.109 97.751)" fill="none" stroke="#263238" stroke-linecap="round" stroke-linejoin="round" stroke-width="1.52"/>
        <path id="Vector-27" data-name="Vector" d="M0,3.127V0" transform="translate(46.486 97.751)" fill="none" stroke="#263238" stroke-linecap="round" stroke-linejoin="round" stroke-width="1.52"/>
        <path id="Vector-28" data-name="Vector" d="M0,3.127V0" transform="translate(52.862 97.751)" fill="none" stroke="#263238" stroke-linecap="round" stroke-linejoin="round" stroke-width="1.52"/>
        <path id="Vector-29" data-name="Vector" d="M0,3.127V0" transform="translate(59.239 97.751)" fill="none" stroke="#263238" stroke-linecap="round" stroke-linejoin="round" stroke-width="1.52"/>
        <path id="Vector-30" data-name="Vector" d="M0,3.127V0" transform="translate(65.623 97.751)" fill="none" stroke="#263238" stroke-linecap="round" stroke-linejoin="round" stroke-width="1.52"/>
        <path id="Vector-31" data-name="Vector" d="M0,3.127V0" transform="translate(71.999 97.751)" fill="none" stroke="#263238" stroke-linecap="round" stroke-linejoin="round" stroke-width="1.52"/>
        <path id="Vector-32" data-name="Vector" d="M0,3.127V0" transform="translate(78.376 97.751)" fill="none" stroke="#263238" stroke-linecap="round" stroke-linejoin="round" stroke-width="1.52"/>
        <path id="Vector-33" data-name="Vector" d="M0,3.127V0" transform="translate(84.753 97.751)" fill="none" stroke="#263238" stroke-linecap="round" stroke-linejoin="round" stroke-width="1.52"/>
        <path id="Vector-34" data-name="Vector" d="M0,3.127V0" transform="translate(91.136 97.751)" fill="none" stroke="#263238" stroke-linecap="round" stroke-linejoin="round" stroke-width="1.52"/>
        <path id="Vector-35" data-name="Vector" d="M0,3.127V0" transform="translate(97.513 97.751)" fill="none" stroke="#263238" stroke-linecap="round" stroke-linejoin="round" stroke-width="1.52"/>
        <path id="Vector-36" data-name="Vector" d="M0,3.127V0" transform="translate(103.889 97.751)" fill="none" stroke="#263238" stroke-linecap="round" stroke-linejoin="round" stroke-width="1.52"/>
        <path id="Vector-37" data-name="Vector" d="M0,3.127V0" transform="translate(110.266 97.751)" fill="none" stroke="#263238" stroke-linecap="round" stroke-linejoin="round" stroke-width="1.52"/>
        <path id="Vector-38" data-name="Vector" d="M0,3.127V0" transform="translate(116.405 97.751)" fill="none" stroke="#263238" stroke-linecap="round" stroke-linejoin="round" stroke-width="1.52"/>
        <path id="Vector-39" data-name="Vector" d="M0,3.127V0" transform="translate(122.544 97.751)" fill="none" stroke="#263238" stroke-linecap="round" stroke-linejoin="round" stroke-width="1.52"/>
        <path id="Vector-40" data-name="Vector" d="M0,3.127V0" transform="translate(128.676 97.751)" fill="none" stroke="#263238" stroke-linecap="round" stroke-linejoin="round" stroke-width="1.52"/>
        <path id="Vector-41" data-name="Vector" d="M136.874,3.746V33.97c0,2.073-2.107,3.746-4.7,3.746H4.759A5.044,5.044,0,0,1,.68,35.874,3.216,3.216,0,0,1,0,33.97V3.746C0,1.706,2.107,0,4.7,0H132.17C134.767,0,136.874,1.672,136.874,3.746Z" transform="translate(8.035 63.162)" fill="none" stroke="#92e3a9" stroke-linecap="round" stroke-linejoin="round" stroke-width="1.52"/>
        <path id="Vector-42" data-name="Vector" d="M97.547,2.277,56.873,57.071,41.319,78.023l-17-10.823L3.528,94.787h-.3A3.746,3.746,0,0,1,0,92.944L23.365,61.938l17,10.8L51.992,57.1,94.406,0Z" transform="translate(8.586 6.091)" fill="#219653"/>
        <path id="Vector-43" data-name="Vector" d="M0,9.062,14.949,0,10.816,15.677,8.178,8.423Z" transform="translate(95.813)" fill="#219653"/>
      </g>
      <g id="freepik_Floor_inject_2" data-name="freepik  Floor  inject 2" transform="translate(0 55.983)">
        <path id="Vector-44" data-name="Vector" d="M265.883,0H26.8L0,23.828" transform="translate(0 125.589)" fill="none" stroke="#27ae60" stroke-linecap="round" stroke-linejoin="round" stroke-width="2.105"/>
        <path id="Vector-45" data-name="Vector" d="M0,46.329V0" transform="translate(26.948 62.577)" fill="none" stroke="#27ae60" stroke-linecap="round" stroke-linejoin="round" stroke-width="2.105"/>
        <path id="Vector-46" data-name="Vector" d="M0,8.96V0" transform="translate(26.948 113.937)" fill="none" stroke="#27ae60" stroke-linecap="round" stroke-linejoin="round" stroke-width="2.105"/>
        <g id="freepik_freepik_Plants_inject_120_inject_2" data-name="freepik  freepik  Plants  inject 120  inject 2" transform="translate(217.908)">
          <path id="Vector-47" data-name="Vector" d="M10.889,12.876s0-2.8-3.923-6.717S.529,0,.529,0-1.436,6.438,2.208,10.36a68.661,68.661,0,0,0,8.681,7.573Z" transform="translate(22.694)" fill="#92e3a9"/>
          <path id="Vector-48" data-name="Vector" d="M10.887,12.883s0-2.8-3.923-6.723S.526,0,.526,0-1.432,6.438,2.205,10.36a69.77,69.77,0,0,0,8.681,7.58Z" transform="translate(17.006 17.485)" fill="#92e3a9"/>
          <path id="Vector-49" data-name="Vector" d="M.53,11.713s.3-2.787,4.609-6.275S12.2,0,12.2,0,13.46,6.628,9.429,10.122A69.009,69.009,0,0,1,0,16.723Z" transform="translate(32.801 5.935)" fill="#92e3a9"/>
          <path id="Vector-50" data-name="Vector" d="M1.04,10.428s.591-2.719,5.241-5.751S13.861,0,13.861,0s.564,6.71-3.793,9.783A68.519,68.519,0,0,1,0,15.35Z" transform="translate(25.419 27.872)" fill="#92e3a9"/>
          <path id="Vector-51" data-name="Vector" d="M0,12.876s0-2.8,3.916-6.717S10.354,0,10.354,0s1.965,6.445-1.679,10.36A68.131,68.131,0,0,1,0,17.94Z" transform="translate(27.757 47.934)" fill="#92e3a9"/>
          <path id="Vector-52" data-name="Vector" d="M9.629,14.222s.394-2.774-2.93-7.206S1.206,0,1.206,0s-2.842,6.118.2,10.5a68.96,68.96,0,0,0,7.519,8.715Z" transform="translate(18.06 52.088)" fill="#92e3a9"/>
          <path id="Vector-53" data-name="Vector" d="M0,12.835s0-2.794,3.923-6.717S10.36,0,10.36,0s1.965,6.438-1.679,10.354A68.661,68.661,0,0,1,0,17.934Z" transform="translate(23.821 69.756)" fill="#92e3a9"/>
          <path id="Vector-54" data-name="Vector" d="M.073,15.058s-.68-2.719,2.1-7.478S6.844,0,6.844,0s3.521,5.738,1,10.449a68.8,68.8,0,0,1-6.485,9.517Z" transform="translate(26.365 82.305)" fill="#92e3a9"/>
          <path id="Vector-55" data-name="Vector" d="M10.308,0A79.369,79.369,0,0,1,9.234,8.688C7.684,16.7,3.8,21.863,2.259,29.083s2.9,16.554,1.713,25.833S-.841,69.368.179,75.568,6.637,98.546,6.637,98.546" transform="translate(23.629 12.182)" fill="none" stroke="#263238" stroke-linecap="round" stroke-linejoin="round" stroke-width="1.79"/>
          <path id="Vector-56" data-name="Vector" d="M0,3.25,4.222,0" transform="translate(33.298 16.261)" fill="none" stroke="#263238" stroke-linecap="round" stroke-linejoin="round" stroke-width="1.79"/>
          <path id="Vector-57" data-name="Vector" d="M1.761,3.148,0,0" transform="translate(31.727 12.631)" fill="none" stroke="#263238" stroke-linecap="round" stroke-linejoin="round" stroke-width="1.79"/>
          <path id="Vector-58" data-name="Vector" d="M0,5.309S3.535,2.651,7.172,0" transform="translate(26.125 35.629)" fill="none" stroke="#263238" stroke-linecap="round" stroke-linejoin="round" stroke-width="1.79"/>
          <path id="Vector-59" data-name="Vector" d="M6.288,9.613A56.658,56.658,0,0,0,0,0" transform="translate(21.604 25.779)" fill="none" stroke="#263238" stroke-linecap="round" stroke-linejoin="round" stroke-width="1.79"/>
          <path id="Vector-60" data-name="Vector" d="M0,10.116A43.9,43.9,0,0,1,7.58,0" transform="translate(27.893 54.678)" fill="none" stroke="#263238" stroke-linecap="round" stroke-linejoin="round" stroke-width="1.79"/>
          <path id="Vector-61" data-name="Vector" d="M6.227,10.721A49.9,49.9,0,0,0,2.366,3.44C.326.394,0,0,0,0" transform="translate(20.979 58.002)" fill="none" stroke="#263238" stroke-linecap="round" stroke-linejoin="round" stroke-width="1.79"/>
          <path id="Vector-62" data-name="Vector" d="M0,11.883A47.3,47.3,0,0,1,3.188,5.439,41.843,41.843,0,0,1,7.308,0" transform="translate(23.821 75.861)" fill="none" stroke="#263238" stroke-linecap="round" stroke-linejoin="round" stroke-width="1.79"/>
          <path id="Vector-63" data-name="Vector" d="M.055,14.256a11.978,11.978,0,0,1,1.061-6.2C2.591,5.207,4.257,1.468,4.95,0" transform="translate(27.661 87.982)" fill="none" stroke="#263238" stroke-linecap="round" stroke-linejoin="round" stroke-width="1.79"/>
          <path id="Vector-64" data-name="Vector" d="M.016,9.2S-.29,7.458,1.743,4.568,5.142,0,5.142,0s1.924,3.821.068,6.676A43.617,43.617,0,0,1,.587,12.359Z" transform="translate(7.897 41.074)" fill="#92e3a9"/>
          <path id="Vector-65" data-name="Vector" d="M.016,9.2S-.29,7.444,1.743,4.562,5.142,0,5.142,0s1.924,3.827.068,6.676A43.168,43.168,0,0,1,.587,12.359Z" transform="translate(13.363 51.448)" fill="#92e3a9"/>
          <path id="Vector-66" data-name="Vector" d="M8.586,6.05s-.476-1.713-3.569-3.4S0,0,0,0-.075,4.262,2.842,6.05A43.6,43.6,0,0,0,9.47,9.164Z" transform="translate(0 47.193)" fill="#92e3a9"/>
          <path id="Vector-67" data-name="Vector" d="M9.184,5.139S8.5,3.487,5.269,2.107,0,0,0,0,.374,4.262,3.453,5.717a43.862,43.862,0,0,0,6.921,2.4Z" transform="translate(5.955 60.306)" fill="#92e3a9"/>
          <path id="Vector-68" data-name="Vector" d="M7.941,6.955S7.635,5.2,4.753,3.168.042,0,.042,0s-.53,4.262,2.182,6.315A43.44,43.44,0,0,0,8.485,10.1Z" transform="translate(8.83 72.734)" fill="#92e3a9"/>
          <path id="Vector-69" data-name="Vector" d="M.091,9.83S-.459,8.137,1.145,5,3.864,0,3.864,0s2.447,3.508,1.02,6.6a44.317,44.317,0,0,1-3.793,6.282Z" transform="translate(17.312 73.318)" fill="#92e3a9"/>
          <path id="Vector-70" data-name="Vector" d="M.36,7.362S.564,5.595,3.324,3.4,7.845,0,7.845,0,8.62,4.215,6.03,6.431A44.106,44.106,0,0,1,0,10.578Z" transform="translate(21.965 89.946)" fill="#92e3a9"/>
          <path id="Vector-71" data-name="Vector" d="M7.935,6.955S7.629,5.194,4.746,3.161.042,0,.042,0s-.53,4.262,2.175,6.315A43.753,43.753,0,0,0,8.485,10.1Z" transform="translate(13.663 85.99)" fill="#92e3a9"/>
          <path id="Vector-72" data-name="Vector" d="M6.451,8.736S6.607,6.955,4.33,4.262.577,0,.577,0s-1.591,3.977.51,6.662a44.44,44.44,0,0,0,5.1,5.269Z" transform="translate(15.107 93.753)" fill="#92e3a9"/>
          <path id="Vector-73" data-name="Vector" d="M0,0A50.306,50.306,0,0,0,1.625,5.337C3.46,10.184,6.451,13,8.205,17.369s0,10.693,1.734,16.384,4.589,8.525,4.609,12.543-1.53,15.119-1.53,15.119" transform="translate(7.607 49.871)" fill="none" stroke="#263238" stroke-linecap="round" stroke-linejoin="round" stroke-width="1.79"/>
          <path id="Vector-74" data-name="Vector" d="M3,1.57,0,0" transform="translate(5.813 52.835)" fill="none" stroke="#263238" stroke-linecap="round" stroke-linejoin="round" stroke-width="1.79"/>
          <path id="Vector-75" data-name="Vector" d="M0,2.162.768,0" transform="translate(8.28 49.926)" fill="none" stroke="#263238" stroke-linecap="round" stroke-linejoin="round" stroke-width="1.79"/>
          <path id="Vector-76" data-name="Vector" d="M5.071,2.549S2.563,1.271,0,0" transform="translate(10.565 64.508)" fill="none" stroke="#263238" stroke-linecap="round" stroke-linejoin="round" stroke-width="1.79"/>
          <path id="Vector-77" data-name="Vector" d="M0,6.7A35.928,35.928,0,0,1,2.9,0" transform="translate(13.923 57.105)" fill="none" stroke="#263238" stroke-linecap="round" stroke-linejoin="round" stroke-width="1.79"/>
          <path id="Vector-78" data-name="Vector" d="M5.846,5.52A27.974,27.974,0,0,0,0,0" transform="translate(11.271 76.697)" fill="none" stroke="#263238" stroke-linecap="round" stroke-linejoin="round" stroke-width="1.79"/>
          <path id="Vector-79" data-name="Vector" d="M0,7.39A31.169,31.169,0,0,1,1.611,2.42C2.556.279,2.719,0,2.719,0" transform="translate(17.975 77.22)" fill="none" stroke="#263238" stroke-linecap="round" stroke-linejoin="round" stroke-width="1.79"/>
          <path id="Vector-80" data-name="Vector" d="M0,5.173A26.153,26.153,0,0,1,3.222,1.829,17.315,17.315,0,0,0,5.316,0" transform="translate(22.026 94.025)" fill="none" stroke="#263238" stroke-linecap="round" stroke-linejoin="round" stroke-width="1.79"/>
          <path id="Vector-81" data-name="Vector" d="M5.894,6.635A30.5,30.5,0,0,0,3.175,2.944,26.513,26.513,0,0,0,0,0" transform="translate(16.261 89.532)" fill="none" stroke="#263238" stroke-linecap="round" stroke-linejoin="round" stroke-width="1.79"/>
          <path id="Vector-82" data-name="Vector" d="M4.636,8.43a7.668,7.668,0,0,0-1.36-3.787C2.039,3.012.557.85,0,0" transform="translate(16.669 97.255)" fill="none" stroke="#263238" stroke-linecap="round" stroke-linejoin="round" stroke-width="1.79"/>
          <path id="Vector-83" data-name="Vector" d="M21.775,21.081H3.923a1.36,1.36,0,0,1-1.36-1.326L0,0H25.643L23.08,19.755a1.36,1.36,0,0,1-1.305,1.326Z" transform="translate(12.57 109.348)" fill="#263238"/>
          <path id="Vector-84" data-name="Vector" d="M27.417,3.991H2.005A2,2,0,0,1,0,2.005H0A2.039,2.039,0,0,1,2,0H27.417a2,2,0,0,1,2.005,2h0a2,2,0,0,1-2.005,1.992Z" transform="translate(10.592 108.696)" fill="#263238"/>
        </g>
      </g>
      <g id="freepik_Coins_inject_2" data-name="freepik  Coins  inject 2" transform="translate(148.801 27.53)">
        <path id="Vector-85" data-name="Vector" d="M49.28,24.689A24.684,24.684,0,0,1,30.157,48.734h-.075c-.646.143-1.292.272-1.958.367a25.208,25.208,0,0,1-3.528.252A24.684,24.684,0,0,1,23.685.005h.68a1.169,1.169,0,0,1,.218,0,1.564,1.564,0,0,1,.252,0A24.3,24.3,0,0,1,34.5,2.079,24.684,24.684,0,0,1,49.28,24.689Z" transform="translate(0.548 37.435)" fill="#92e3a9"/>
        <path id="Vector-86" data-name="Vector" d="M29.959,2.06C1.455.578,1.319,32.223,1.319,32.223S-3.032,21.9,4.072,10.469C8.042,4.072,14.949,1.251,20.292,0a24.3,24.3,0,0,1,9.667,2.06Z" transform="translate(5.103 37.461)" fill="#fff" opacity="0.4"/>
        <path id="Vector-87" data-name="Vector" d="M49.828,24.684A24.684,24.684,0,0,1,30.63,48.75a24.276,24.276,0,0,1-5.486.619A24.688,24.688,0,0,1,24.233,0h.911A24.691,24.691,0,0,1,49.828,24.684Z" transform="translate(0 37.441)" fill="none" stroke="#263238" stroke-linecap="round" stroke-linejoin="round" stroke-width="1.52"/>
        <path id="Vector-88" data-name="Vector" d="M44.735,24.684a24.684,24.684,0,0,1-19.2,24.065h-.911A24.691,24.691,0,0,1,19.14,0h.911A24.691,24.691,0,0,1,44.735,24.684Z" transform="translate(5.093 37.441)" fill="none" stroke="#263238" stroke-linecap="round" stroke-linejoin="round" stroke-width="1.52"/>
        <path id="Vector-89" data-name="Vector" d="M0,.238,5.214,0" transform="translate(12.527 83.111)" fill="none" stroke="#263238" stroke-linecap="round" stroke-linejoin="round" stroke-width="1.52"/>
        <path id="Vector-90" data-name="Vector" d="M0,.387,4.548,0" transform="translate(10.018 81.227)" fill="none" stroke="#263238" stroke-linecap="round" stroke-linejoin="round" stroke-width="1.52"/>
        <path id="Vector-91" data-name="Vector" d="M0,.387,4.548,0" transform="translate(7.978 79.399)" fill="none" stroke="#263238" stroke-linecap="round" stroke-linejoin="round" stroke-width="1.52"/>
        <path id="Vector-92" data-name="Vector" d="M0,0H3.9" transform="translate(7.353 45.007)" fill="none" stroke="#263238" stroke-linecap="round" stroke-linejoin="round" stroke-width="1.52"/>
        <path id="Vector-93" data-name="Vector" d="M0,.177,3.882,0" transform="translate(9.277 43.035)" fill="none" stroke="#263238" stroke-linecap="round" stroke-linejoin="round" stroke-width="1.52"/>
        <path id="Vector-94" data-name="Vector" d="M0,.387,4.092,0" transform="translate(11.711 41.023)" fill="none" stroke="#263238" stroke-linecap="round" stroke-linejoin="round" stroke-width="1.52"/>
        <path id="Vector-95" data-name="Vector" d="M30.157,48.729h-.075a24.276,24.276,0,0,1-5.486.619A24.684,24.684,0,0,1,23.685,0h.68C18.348,1.9,8.253,6.744,5.554,16.853,1.74,31.217,10.326,47.526,30.157,48.729Z" transform="translate(0.548 37.441)" opacity="0.3"/>
        <path id="Vector-96" data-name="Vector" d="M21.156,22.624a24.684,24.684,0,0,1-5.365,15.36A24.684,24.684,0,0,1,2.033,46.669H1.958c-.646.143-1.292.272-1.958.367L6.39,0A24.684,24.684,0,0,1,17.143,9.113,24.684,24.684,0,0,1,21.156,22.624Z" transform="translate(28.673 39.5)" opacity="0.1"/>
        <path id="Vector-97" data-name="Vector" d="M26.654,23.266A14.956,14.956,0,0,1,8.768,28.46l-.088-.041q-.7-.306-1.36-.68a13.345,13.345,0,0,1-1.441-.9,14.956,14.956,0,0,1,16.445-24.9l.333.211c.156.088.306.2.462.306s.455.333.68.51a14.956,14.956,0,0,1,2.855,20.3Z" transform="translate(37.178 0)" fill="#92e3a9"/>
        <path id="Vector-98" data-name="Vector" d="M1.89,22.193s-2.441-7.186.8-12.475C6.771,3.09,13.018.065,21.523,1.7c0,0-4.609-3.114-12.325-.9S-2.658,13.62,1.89,22.193Z" transform="translate(39.413 1.278)" fill="#fff" opacity="0.4"/>
        <path id="Vector-99" data-name="Vector" d="M26.662,23.247a14.956,14.956,0,0,1-17.886,5.18,14.65,14.65,0,0,1-2.923-1.6,14.956,14.956,0,0,1,16.8-24.691c.15.088.306.19.455.3a14.956,14.956,0,0,1,3.555,20.816Z" transform="translate(37.17 0.026)" fill="none" stroke="#263238" stroke-linecap="round" stroke-linejoin="round" stroke-width="1.52"/>
        <path id="Vector-100" data-name="Vector" d="M24.52,22.184a14.956,14.956,0,0,1-17.886,5.18l-.455-.3a14.956,14.956,0,0,1,14.331-26c.15.088.306.19.455.3A14.956,14.956,0,0,1,24.52,22.184Z" transform="translate(39.312 1.089)" fill="none" stroke="#263238" stroke-linecap="round" stroke-linejoin="round" stroke-width="1.52"/>
        <path id="Vector-101" data-name="Vector" d="M22.323,1.92c-4.079-.727-9.246-1.128-12.033.68-5.119,3.284-8.307,7.424-8.26,14.133S8.346,28.147,8.346,28.147l.367.265a14.725,14.725,0,0,1-2.835-1.57,14.956,14.956,0,0,1,16.445-24.9Z" transform="translate(37.144 0.027)" opacity="0.3"/>
        <path id="Vector-102" data-name="Vector" d="M19.334,20.293A14.956,14.956,0,0,1,1.448,25.486l-.088-.041q-.7-.306-1.36-.68L16.438,0a14.956,14.956,0,0,1,2.9,20.293Z" transform="translate(44.498 2.974)" opacity="0.1"/>
      </g>
      <g id="freepik_Character_inject_2" data-name="freepik  Character  inject 2" transform="translate(42.357 66.366)">
        <path id="Vector-103" data-name="Vector" d="M162.541,129.843a89.736,89.736,0,0,1-22.325,19.273,78.9,78.9,0,0,1-8.158,4.256c-19.314,8.681-41.326,9.245-61.911,4.256C26.863,147.137,3.9,108.931.983,66.518.2,55.056-1.553,42.677,3.09,31.772S17.122,14.1,27.74,9.393a143.505,143.505,0,0,1,23.6-7.621,60.714,60.714,0,0,1,40.85,4.215c8.9,4.222,15.235,11.557,22.719,17.736q1.19.979,2.393,1.951A224.272,224.272,0,0,0,141.1,42.4c12.583,7.675,25.466,14.915,33.508,27.8C187.436,90.753,176.613,113.119,162.541,129.843Z" transform="translate(0.039 46.03)" fill="#92e3a9"/>
        <path id="Vector-104" data-name="Vector" d="M162.541,129.843a89.736,89.736,0,0,1-22.325,19.273,78.9,78.9,0,0,1-8.158,4.256c-19.314,8.681-41.326,9.245-61.911,4.256C26.863,147.137,3.9,108.931.983,66.518.2,55.056-1.553,42.677,3.09,31.772S17.122,14.1,27.74,9.393a143.505,143.505,0,0,1,23.6-7.621,60.714,60.714,0,0,1,40.85,4.215c8.9,4.222,15.235,11.557,22.719,17.736q1.19.979,2.393,1.951A224.272,224.272,0,0,0,141.1,42.4c12.583,7.675,25.466,14.915,33.508,27.8C187.436,90.753,176.613,113.119,162.541,129.843Z" transform="translate(0.039 46.03)" fill="#fff" opacity="0.4"/>
        <path id="Vector-105" data-name="Vector" d="M117.319,25.672q-1.2-.965-2.393-1.958c-7.478-6.193-13.827-13.508-22.719-17.73A60.755,60.755,0,0,0,51.356,1.77C33.362,6.236,11.043,13.116,3.089,31.777-1.554,42.654.2,55.054.989,66.515c2.95,42.414,25.915,80.619,69.2,91.109,23.549,5.71,48.947,4.147,70.069-8.511a89.736,89.736,0,0,0,22.325-19.273c14.072-16.723,24.895-39.089,12.08-59.633-8.035-12.917-20.918-20.129-33.508-27.8a224.271,224.271,0,0,1-23.834-16.73Z" transform="translate(0 46.033)" fill="none" stroke="#263238" stroke-width="1.52"/>
        <path id="Vector-106" data-name="Vector" d="M10.449,0A62.251,62.251,0,0,0,0,4.228" transform="translate(41.302 147.334)" fill="none" stroke="#263238" stroke-linecap="round" stroke-linejoin="round" stroke-width="1.52"/>
        <path id="Vector-107" data-name="Vector" d="M15.636,0A111.488,111.488,0,0,0,0,2.481" transform="translate(58.175 143.133)" fill="none" stroke="#263238" stroke-linecap="round" stroke-linejoin="round" stroke-width="1.52"/>
        <path id="Vector-108" data-name="Vector" d="M44.827,6.022A55.255,55.255,0,0,0,0,3.676" transform="translate(24.394 136.024)" fill="none" stroke="#263238" stroke-linecap="round" stroke-linejoin="round" stroke-width="1.52"/>
        <path id="Vector-109" data-name="Vector" d="M152.047,129.843a89.736,89.736,0,0,1-22.325,19.273,78.9,78.9,0,0,1-8.158,4.256,63.7,63.7,0,0,1-6.506-2.386c-12.685-5.439-23.331-14.636-33.732-23.705-6.275-5.439-12.651-11.013-20.163-14.6a46.377,46.377,0,0,0-32.522-2.678A36.526,36.526,0,0,1,50.149,98.17c-5.371-4.888-12.842-6.941-20.1-7.07s-11.258.761-18.355,2.352c2.373-4.364,8.668-8.314,13.637-8.2a123.5,123.5,0,0,1-14.127-1c-6.411-1.033-9.279-8.579-10.238-15-2.651-17.675.034-36.5,9.681-51.523a52.448,52.448,0,0,1,6.594-8.341,143.505,143.505,0,0,1,23.6-7.621,60.714,60.714,0,0,1,40.85,4.215c8.9,4.222,15.235,11.557,22.719,17.736q1.19.979,2.393,1.951A224.272,224.272,0,0,0,130.6,42.4c12.583,7.675,25.466,14.915,33.508,27.8C176.942,90.753,166.119,113.119,152.047,129.843Z" transform="translate(10.534 46.03)" opacity="0.1"/>
        <path id="Vector-110" data-name="Vector" d="M10.433,0A131.442,131.442,0,0,0,22.377,8.838c8.083.544,4.46,10.313,4.46,10.313L19.916,23.6S8.067,14.188,1.6,11.135,10.433,0,10.433,0Z" transform="translate(159.232 175.356)" fill="#fff"/>
        <path id="Vector-111" data-name="Vector" d="M87.876,28.282S86.767,17.317,85,14.237L58.161,8.771V6.691S58.779,3.075,52.8.811s-18.45.68-21.666,3.114-2.039,6.621-2.039,6.621S18.283,16,13.429,18.085A124.025,124.025,0,0,0,1.824,24.2S-.378,49.411.057,55.264s-.354,11.36.15,14.6.9,5.085,4.3,7.845,6.492,6.8,15.4,2.794l-1.244-.986L77.332,59.758Z" transform="translate(24.352 44.218)" opacity="0.3"/>
        <path id="Vector-112" data-name="Vector" d="M87.876,28.282S86.767,17.317,85,14.237L58.161,8.771V6.691S58.779,3.075,52.8.811s-18.45.68-21.666,3.114-2.039,6.621-2.039,6.621S18.283,16,13.429,18.085A124.025,124.025,0,0,0,1.824,24.2S-.378,49.411.057,55.264s-.354,11.36.15,14.6.9,5.085,4.3,7.845,6.492,6.8,15.4,2.794l-1.244-.986L77.332,59.758Z" transform="translate(24.352 44.218)" fill="#92e3a9"/>
        <path id="Vector-113" data-name="Vector" d="M87.876,28.282S86.767,17.317,85,14.237L58.161,8.771V6.691S58.779,3.075,52.8.811s-18.45.68-21.666,3.114-2.039,6.621-2.039,6.621S18.283,16,13.429,18.085A124.025,124.025,0,0,0,1.824,24.2S-.378,49.411.057,55.264s-.354,11.36.15,14.6.9,5.085,4.3,7.845,6.492,6.8,15.4,2.794l-1.244-.986L77.332,59.758Z" transform="translate(24.352 44.218)" opacity="0.05"/>
        <path id="Vector-114" data-name="Vector" d="M82.44,0H71.21a4.466,4.466,0,0,0-4.4,3.732L61.278,37.043s-7.621.632-13.018,4.568S29.585,17.464,8.606,17.451c0,0,6.037,13.8,7.376,24.813,0,0-13.114-1.428-15.289,3.7S1.678,60.721,7.225,57s10.768-9.939,14.473-6.01S41.957,57.03,41.957,57.03L67.43,44.188l9.878-4.643Z" transform="translate(27.265 59.788)" opacity="0.1"/>
        <path id="Vector-115" data-name="Vector" d="M20.982,0s6.377,1.768,7.41,3.909.925,7.56.925,7.56A26.173,26.173,0,0,1,22.457,20.9L17.7,11.469l.428,10.7S9.1,20.666,5.265,17.784L1.437,14.895S-.214,9.456.023,7.614,7.148,2.033,7.148,2.033Z" transform="translate(53.066 43.275)" fill="#fff" opacity="0.4"/>
        <path id="Vector-116" data-name="Vector" d="M32.434,26.907c-.177-.387,2.617-5.323.428-10.347s-5.676-3.086-5.676-3.086S17.254,7.152,13.08,5.153A71.177,71.177,0,0,1,4.412,0L0,5.942,4.079,18.559Z" transform="translate(147.829 181.366)" fill="#92e3a9"/>
        <path id="Vector-117" data-name="Vector" d="M0,25.262l12.753,7.791S21.72,27.3,26,23.331,39.878,10.9,39.878,10.9L46,2.672S41.754-2.576,34.684,1.638C25.547,7.077,14.405,14.976,6.975,14.9c0,0,1.462,9.13-6.927,10.36" transform="translate(174.655 169.272)" fill="#92e3a9"/>
        <path id="Vector-118" data-name="Vector" d="M22.124,0s5.785,8.756,6.839,11.591,1.9,7.029,1.693,9.048-2.332,12.835-3.4,13.148L26.23,34.949l.68,4.582s-4.528,7.825-17.838,2.087c0,0-.517-9.137-2.135-12.006S2.9,30.157.472,21.87s5.3-17,5.3-17Z" transform="translate(49.763 10.317)" fill="#fff"/>
        <path id="Vector-119" data-name="Vector" d="M29.212,0s-6.56,1.142-8.688,5.024S14.31,16.118,12.917,19.606,0,31.516,0,31.516l1.53,1.421s9.381-5.8,15.044-11.312S34.725,2.243,34.725,2.243,33.828,1.353,29.212,0Z" transform="translate(185.885 169.387)" fill="#fff" opacity="0.5"/>
        <path id="Vector-120" data-name="Vector" d="M1.625,0,0,2.182,4.99,12.529l27.444,9.864,1.271-4.018s.421-4.079-9.212-7.179S8.987,6.05,6.248,3.923,1.625,0,1.625,0Z" transform="translate(147.829 185.125)" fill="#fff" opacity="0.5"/>
        <path id="Vector-121" data-name="Vector" d="M15.858,8.919s-8.4-1.264-12.325,5.608S.012,24.378.012,24.378A20.334,20.334,0,0,0,13.2,29.137c7.634-.286,18.749-9.028,22.373-11.876s12.76-11,18.994-9.313l.68-5.894S54.635-.592,49.305.122s-7.424,3.753-9.144,3.753-3.345-1.652-6.8,4.249C33.357,8.124,21.235,10.272,15.858,8.919Z" transform="translate(42.997 99.36)" fill="#fff"/>
        <path id="Vector-122" data-name="Vector" d="M0,0A24.337,24.337,0,0,0,.761,3.256a3.793,3.793,0,0,0,.68,1.434,4.4,4.4,0,0,0,2.617,1,.714.714,0,0,1,.421.177.68.68,0,0,1,.1.408,5.439,5.439,0,0,1-.925,3" transform="translate(69.773 22.908)" fill="none" stroke="#263238" stroke-linecap="round" stroke-linejoin="round" stroke-width="1.52"/>
        <path id="Vector-123" data-name="Vector" d="M5.636,0,0,7.022s6.186,5.717,12.59,7.838,17.614,6.118,19.49,9.2l-.721-3.664S13.827,9.64,9.8,7.07A9.286,9.286,0,0,1,6.9,4.02,9.286,9.286,0,0,1,5.636,0Z" transform="translate(149.453 178.076)" opacity="0.1"/>
        <path id="Vector-124" data-name="Vector" d="M0,25.146l11.224,6.37a70.469,70.469,0,0,0,8.26-6.587c2.719-2.794,6.071-5.894,8.158-12.155C30.49,4.12,38.648,0,38.648,0S27.3,5.343,21.394,9.517,9.728,15.459,6.383,15.174C6.349,15.194,9.035,23.692,0,25.146Z" transform="translate(174.655 169.387)" opacity="0.1"/>
        <path id="Vector-125" data-name="Vector" d="M0,0S4.412,3.46,8.994,2.162C8.994,2.162,4.67,10.728,0,0Z" transform="translate(65.816 33.73)" fill="#fff" stroke="#263238" stroke-linecap="round" stroke-linejoin="round" stroke-width="1.52"/>
        <path id="Vector-126" data-name="Vector" d="M1.771,1.616c.129.952-.163,1.774-.639,1.842S.16,2.778.031,1.847.187.072.67,0,1.669.664,1.771,1.616Z" transform="translate(63.882 24.637)" fill="#263238"/>
        <path id="Vector-127" data-name="Vector" d="M1.769,1.608c.122.959-.163,1.781-.639,1.842s-.979-.68-1.1-1.6S.185.065.668,0,1.64.656,1.769,1.608Z" transform="translate(73.489 22.911)" fill="#263238"/>
        <path id="Vector-128" data-name="Vector" d="M4.4.309A3.362,3.362,0,0,0,0,1.825" transform="translate(60.575 21.905)" fill="none" stroke="#263238" stroke-linecap="round" stroke-linejoin="round" stroke-width="1.52"/>
        <path id="Vector-129" data-name="Vector" d="M0,1.036s2.719-2.332,4.29,0" transform="translate(71.56 19.41)" fill="none" stroke="#263238" stroke-linecap="round" stroke-linejoin="round" stroke-width="1.52"/>
        <path id="Vector-130" data-name="Vector" d="M5.44,2.367S3.788-.073,2.041,0-.4,2.524.226,4.89s3.229,5.67,5.2,5.357A4.378,4.378,0,0,0,8.262,8.669" transform="translate(50.804 28.596)" fill="none" stroke="#263238" stroke-linecap="round" stroke-linejoin="round" stroke-width="1.52"/>
        <path id="Vector-131" data-name="Vector" d="M8.763,0c1.856,1.543,3.821,3.222,4.759,5.493.829,1.931,1.013,4.079,1.774,6.03a20.169,20.169,0,0,1,1.761,6.547,27.73,27.73,0,0,1-.823,6.248,34.433,34.433,0,0,1-1.258,5.228,9.251,9.251,0,0,1-4.881,5.1c-1.652.843-4.405,2.039-6.193.911A21.148,21.148,0,0,1,0,31.142" transform="translate(63.321 12.289)" fill="none" stroke="#263238" stroke-linecap="round" stroke-linejoin="round" stroke-width="1.52"/>
        <path id="Vector-132" data-name="Vector" d="M0,0S2.923,7.165,2.216,12.2" transform="translate(56.245 38.842)" fill="none" stroke="#263238" stroke-linecap="round" stroke-linejoin="round" stroke-width="1.52"/>
        <path id="Vector-133" data-name="Vector" d="M12.445,29.76a2.814,2.814,0,0,0,1.128-2.522c-.109-1.1-.87-2.121-.721-3.222a5.935,5.935,0,0,1,.585-1.509,6.329,6.329,0,0,0-.354-5.724s9.286.435,13.637-2.332,7.668-9.844,5.037-13.222S24,2.459,20.2,2.968,2.886,5.633.731,10.841s1.128,7.077,1.23,12.046.1,14.385,7.532,13.522c0,0-2.78-3.6-.85-7.3C9.956,27.551,12.445,29.76,12.445,29.76Z" transform="translate(43.052 0)" fill="#263238"/>
        <path id="Vector-134" data-name="Vector" d="M4.541,0A11.652,11.652,0,0,1,7.612,3.617,11.652,11.652,0,0,1,8.987,8.158C9.4,11.883,16.01,19.123,11.244,23.25c0,0-1.108-4.385-1.761-6.547S7.995,10.585,6.9,9.225,0,3.107,0,3.107Z" transform="translate(69.168 7.102)" fill="#263238"/>
        <path id="Vector-135" data-name="Vector" d="M4.1,4.358S8.679,7.376,17.19,7.5l1,11.414S8.618,18.185,1.5,11.638c0,0-1.924-5.092-1.414-7.281S5.171,0,5.171,0" transform="translate(53.003 46.531)" fill="none" stroke="#263238" stroke-linecap="round" stroke-linejoin="round" stroke-width="1.52"/>
        <path id="Vector-136" data-name="Vector" d="M6.159.823,6.431,4.9A16.873,16.873,0,0,1,0,9.082l5.33,10.15s6.356-4.949,6.989-10.15c0,0,.054-5.323-1.054-6.846S6.118,0,6.118,0" transform="translate(70.194 44.961)" fill="none" stroke="#263238" stroke-linecap="round" stroke-linejoin="round" stroke-width="1.52"/>
        <path id="Vector-137" data-name="Vector" d="M0,11.115A5.443,5.443,0,0,1,4.358,8.124a45.148,45.148,0,0,1,5.513-.129,14.154,14.154,0,0,0,7.206-2.039A9.633,9.633,0,0,0,19.845,3.41,9.633,9.633,0,0,0,21.428,0" transform="translate(50.561 3.125)" fill="none" stroke="#fff" stroke-linecap="round" stroke-linejoin="round" stroke-width="1.52" opacity="0.8"/>
        <path id="Vector-138" data-name="Vector" d="M0,8.62C1.149,5.133,4.874,2.978,8.538,2.672c1.815-.156,3.651.054,5.439-.156A6.147,6.147,0,0,0,18.613,0" transform="translate(46.176 5.287)" fill="none" stroke="#fff" stroke-linecap="round" stroke-linejoin="round" stroke-width="1.52" opacity="0.8"/>
        <path id="Vector-139" data-name="Vector" d="M19.863,69.98c-8.838,4.582-11.978-.136-16.9-4.038S1.27,55.065.243,43.882s1.53-30.2,1.53-30.2,2.2-.5,8.314-4.242S29.061,0,29.061,0" transform="translate(24.383 54.743)" fill="none" stroke="#263238" stroke-linecap="round" stroke-linejoin="round" stroke-width="1.52"/>
        <path id="Vector-140" data-name="Vector" d="M20,4.56S18.6.121,14.643.005,4.446,1.671,0,10.08" transform="translate(33.001 103.236)" fill="none" stroke="#263238" stroke-linecap="round" stroke-linejoin="round" stroke-width="1.52"/>
        <path id="Vector-141" data-name="Vector" d="M10.87,1.186a2.189,2.189,0,0,1-.714-.17A17.206,17.206,0,0,0,0,.554" transform="translate(35.87 101.79)" fill="none" stroke="#263238" stroke-linecap="round" stroke-linejoin="round" stroke-width="1.52"/>
        <path id="Vector-142" data-name="Vector" d="M0,0C7.2,7.954,10.707,18.477,14.031,28.675" transform="translate(33.593 74.492)" fill="none" stroke="#263238" stroke-linecap="round" stroke-linejoin="round" stroke-width="1.52"/>
        <path id="Vector-143" data-name="Vector" d="M0,0S13.052,3.114,19.429,3.855s7.41,1.632,7.41,1.632l1.19,4.446" transform="translate(82.513 52.989)" fill="none" stroke="#263238" stroke-linecap="round" stroke-linejoin="round" stroke-width="1.52"/>
        <path id="Vector-144" data-name="Vector" d="M48.083,0,3.63,1.706,0,47.424H7.614l38.6-8.64L51.068,1.095Z" transform="translate(95.252 60.726)" fill="#fff"/>
        <path id="Vector-145" data-name="Vector" d="M0,46.6,48.62,0,43.9,36.608Z" transform="translate(97.563 62.901)" fill="#92e3a9"/>
        <path id="Vector-146" data-name="Vector" d="M0,46.6,48.62,0,43.9,36.608Z" transform="translate(97.563 62.901)" fill="#fff" opacity="0.7"/>
        <path id="Vector-147" data-name="Vector" d="M0,46.459l3.889-44.1L48.756,0,43.9,37.689Z" transform="translate(97.563 61.82)" fill="none" stroke="#263238" stroke-linecap="round" stroke-linejoin="round" stroke-width="1.52"/>
        <path id="Vector-148" data-name="Vector" d="M5.365,5.176c-.3,2.685-1.734,4.725-3.2,4.562S-.244,7.256.056,4.571,1.8-.154,3.264.009,5.671,2.49,5.365,5.176Z" transform="translate(122.042 78.011)" fill="#263238"/>
        <path id="Vector-149" data-name="Vector" d="M36.894.027S57.438-.557,63.862,3.685,74.059,29.2,73.169,40.5s-8.64,37.227-8.64,37.227L49.681,60.918s-7.315-26.594-3.324-37.009c0,0-19.715,1.108-27.478-1.326,0,0-6.955-11.387-18.878-15.153Z" transform="translate(104.572 99.482)" fill="#263238"/>
        <path id="Vector-150" data-name="Vector" d="M113.38,71.9A101.851,101.851,0,0,1,99.253,55.589,134.427,134.427,0,0,0,71.918,25.521c-8.233-6.676-10.1-17.553-20.252-23.012C34.841-6.512,20.293,11.415,14.854,15.045S0,22.788,0,22.788,3.44,35.7,13.542,37.234,33.862,31.8,38.7,35.161,47.1,53.55,63.067,62.354c13.046,7.192,30.823,14.208,39.994,18.94,2.039,1.061,3.562,2.175,4.718,2.808,3.168,1.727,6.553,3.759,9.749,5.772l11.006,6.7s11.047-6.533,15.289-12.556c.564-.809,1.74-2.964,2.842-5.044,2.4-4.548,5.439-8.627,9.647-10.877a50.05,50.05,0,0,1,5.439-2.2c-.279-.517-5.554-3.216-9.137-1.74-7.587,3.134-22.753,15.173-29.912,14.276a53.591,53.591,0,0,1-9.32-6.526Z" transform="translate(58.854 105.742)" fill="none" stroke="#263238" stroke-width="1.52"/>
        <path id="Vector-151" data-name="Vector" d="M113.38,71.88c-6.615,2.672-9.279,6.8-10.3,9.4-9.171-4.759-26.948-11.747-39.994-18.94C47.125,53.5,43.576,38.5,38.716,35.143s-15.085,3.63-25.153,2.073S0,22.757,0,22.757s9.422-4.079,14.861-7.709S32.842-6.516,51.666,2.512C62.06,7.5,63.685,18.828,71.918,25.524A134.324,134.324,0,0,1,99.253,55.592,99.933,99.933,0,0,0,113.38,71.88Z" transform="translate(58.854 105.767)" fill="#263238"/>
        <path id="Vector-152" data-name="Vector" d="M13.256,12.352S8.165,2.005,0,0" transform="translate(109.27 107.66)" fill="none" stroke="#fff" stroke-linecap="round" stroke-linejoin="round" stroke-width="1.52"/>
        <path id="Vector-153" data-name="Vector" d="M52.835.161C47.22-1.063,41.054,5.144,38.457,3.981c-1.931-.863-5.105,4.249-5.105,4.249a85.052,85.052,0,0,1-15.785.8C10,8.543,6.417,10.018,3.739,14.063L0,23.968s9.864,8.838,20.394,3.691S44.915,6.986,54.555,7.04" transform="translate(43.001 99.253)" fill="none" stroke="#263238" stroke-linecap="round" stroke-linejoin="round" stroke-width="1.52"/>
        <path id="Vector-154" data-name="Vector" d="M0,10.258S9.218,11.013,7.056,0" transform="translate(174.226 184.01)" fill="none" stroke="#263238" stroke-width="1.52"/>
        <path id="Vector-155" data-name="Vector" d="M16.411,5.575c-.68,1.36-9.13,8.552-16.411,14.84,0-.1,2.039-3.936,2.882-5.574C4.82,11.224,9.823,1.305,19.348,0,20.7.816,16.411,5.575,16.411,5.575Z" transform="translate(201.256 171.631)" fill="#263238"/>
        <path id="Vector-156" data-name="Vector" d="M28.158,0C18.525,1.917,16.336,14.276,12.916,19.531S0,31.931,0,31.931" transform="translate(185.885 169.462)" fill="none" stroke="#263238" stroke-width="1.52"/>
        <path id="Vector-157" data-name="Vector" d="M32.862,18.063c1.57,2.869.829,6.2,0,8.287a17.3,17.3,0,0,1-1.509,2.971C17.716,27.077,4.079,19.749,4.079,19.749L.564,8.872,0,7.131,5.3,0" transform="translate(147.829 180.176)" fill="none" stroke="#263238" stroke-width="1.52"/>
        <path id="Vector-158" data-name="Vector" d="M32.3,17.478a17.3,17.3,0,0,1-1.509,2.971C17.152,18.206,3.515,10.877,3.515,10.877L0,0A19.443,19.443,0,0,0,9.919,7.043C16.56,8.926,28.817,11.129,32.3,17.478Z" transform="translate(148.393 189.048)" fill="#263238"/>
        <path id="Vector-159" data-name="Vector" d="M0,45.833,3.63,1.706,48.083,0l2.984,1.095" transform="translate(95.252 60.726)" fill="none" stroke="#263238" stroke-linecap="round" stroke-linejoin="round" stroke-width="1.52"/>
        <path id="Vector-160" data-name="Vector" d="M0,15.14s6.078,1.088,10.748-2.719S22.944,0,22.944,0" transform="translate(181.221 173.854)" fill="none" stroke="#263238" stroke-width="1.52"/>
        <path id="Vector-161" data-name="Vector" d="M.653,0s-1.468,2.209,0,6.642" transform="translate(186.755 183.514)" fill="none" stroke="#263238" stroke-linecap="round" stroke-linejoin="round" stroke-width="1.52"/>
        <path id="Vector-162" data-name="Vector" d="M.389,0A9.048,9.048,0,0,0,.94,6.642" transform="translate(191.328 181.4)" fill="none" stroke="#263238" stroke-linecap="round" stroke-linejoin="round" stroke-width="1.52"/>
        <path id="Vector-163" data-name="Vector" d="M.547,0a11.755,11.755,0,0,0,0,6.948" transform="translate(196.311 178.422)" fill="none" stroke="#263238" stroke-linecap="round" stroke-linejoin="round" stroke-width="1.52"/>
        <path id="Vector-164" data-name="Vector" d="M4.874,0,0,5.867A30.846,30.846,0,0,0,11.836,13.46c6.927,2.23,19.3,6.016,20.326,10.048" transform="translate(149.453 179.258)" fill="none" stroke="#263238" stroke-width="1.52"/>
      </g>
      <path id="Union" d="M.492,0A.488.488,0,0,0,0,.484V3.541a.488.488,0,0,0,.492.484.488.488,0,0,0,.492-.484V.484A.488.488,0,0,0,.492,0Z" transform="translate(165.758 147.586)" fill="#6fcf97"/>
      <path id="Union-2" data-name="Union" d="M2.4,1.816a.444.444,0,0,0-.448.441V3.318a.448.448,0,0,0,.9,0V2.257A.444.444,0,0,0,2.4,1.816Z" transform="translate(165.182 147.05)" fill="#6fcf97"/>
      <path id="Union-3" data-name="Union" d="M1.953.7a.448.448,0,0,1,.9,0V.79a.448.448,0,0,1-.9,0Z" transform="translate(165.182 147.509)" fill="#6fcf97"/>
      <path id="Union-4" data-name="Union" d="M4.252,2.135a.444.444,0,0,0-.448.441v.09a.448.448,0,0,0,.9,0v-.09A.444.444,0,0,0,4.252,2.135Z" transform="translate(164.637 146.956)" fill="#6fcf97"/>
      <path id="_" data-name="€" d="M6.132,7.453h-2.8A3.047,3.047,0,0,0,4.017,9.5a2.422,2.422,0,0,0,1.84.676,4.879,4.879,0,0,0,1.612-.259l.22,1.6a8.271,8.271,0,0,1-1.95.228,4.333,4.333,0,0,1-3.168-1.132,4.425,4.425,0,0,1-1.219-3.16H0V6.344H1.352V5.338H0V4.23H1.36A4.39,4.39,0,0,1,2.642,1.116,4.42,4.42,0,0,1,5.81,0,8.365,8.365,0,0,1,7.689.244l-.22,1.612a5.022,5.022,0,0,0-1.6-.267,2.385,2.385,0,0,0-1.824.676A3.016,3.016,0,0,0,3.341,4.23H6.132V5.338h-2.8V6.344h2.8Z" transform="translate(142.793 39.831)" fill="#263238"/>
      <path id="_2" data-name="€" d="M6.132,7.453h-2.8A3.047,3.047,0,0,0,4.017,9.5a2.422,2.422,0,0,0,1.84.676,4.879,4.879,0,0,0,1.612-.259l.22,1.6a8.271,8.271,0,0,1-1.95.228,4.333,4.333,0,0,1-3.168-1.132,4.425,4.425,0,0,1-1.219-3.16H0V6.344H1.352V5.338H0V4.23H1.36A4.39,4.39,0,0,1,2.642,1.116,4.42,4.42,0,0,1,5.81,0,8.365,8.365,0,0,1,7.689.244l-.22,1.612a5.022,5.022,0,0,0-1.6-.267,2.385,2.385,0,0,0-1.824.676A3.016,3.016,0,0,0,3.341,4.23H6.132V5.338h-2.8V6.344h2.8Z" transform="matrix(0.979, 0.205, -0.205, 0.979, 198.535, 36.338)" fill="#def7e5"/>
      <path id="_3" data-name="€" d="M12.264,14.906h-5.6a6.1,6.1,0,0,0,1.368,4.088,4.843,4.843,0,0,0,3.679,1.352,9.758,9.758,0,0,0,3.223-.519l.44,3.208a16.542,16.542,0,0,1-3.9.456,8.665,8.665,0,0,1-6.337-2.264A8.851,8.851,0,0,1,2.7,14.906H0V12.689H2.7V10.676H0V8.459H2.72A8.781,8.781,0,0,1,5.283,2.233,8.839,8.839,0,0,1,11.62,0a16.731,16.731,0,0,1,3.758.487l-.44,3.223a10.045,10.045,0,0,0-3.192-.535A4.77,4.77,0,0,0,8.1,4.528,6.032,6.032,0,0,0,6.683,8.459h5.582v2.217h-5.6v2.013h5.6Z" transform="matrix(0.99, 0.139, -0.139, 0.99, 167.423, 76.677)" fill="#beeecb"/>
    </g>
  </g>
</svg>
