<?xml version="1.0" standalone="yes"?>
<svg xmlns="http://www.w3.org/2000/svg" width="512" height="512">
<path style="fill:#ffffff; stroke:none;" d="M0 0L0 14C4.04038 8.1806 6.85493 3.28183 14 1C9.78344 -0.769348 4.54117 0 0 0z"/>
<path style="fill:#000000; stroke:none;" d="M14 0.53241C0.938601 3.64432 -3.72025 19.9635 2.53318 31C7.09971 39.0593 15.5099 45.5099 22 52L59 89L185 215L215 245C217.627 247.627 224.929 252.674 223.793 257C222.381 262.377 213.831 268.169 210 272L175 307L44 438L17 465C12.0311 469.969 6.03506 474.82 2.53318 481C-2.22202 489.392 -0.806742 502.187 7.09336 508.2C25.6762 522.342 43.4134 498.587 55 487L65 477L206 336L243 299C245.908 296.092 252.272 286.965 257 288.207C262.067 289.538 267.399 297.399 271 301L306 336L432 462L469 499C477.531 507.527 487.117 515.603 500 510.867C510.893 506.862 514.91 493.253 510.467 483C507.694 476.602 501.824 471.824 497 467L473 443L332 302L298 268C295.231 265.231 287.016 259.535 288.207 255C289.114 251.545 293.582 248.418 296 246L315 227L385 157L445 97L489 53C495.962 46.0383 505.538 38.9247 510 30C518.846 12.3079 501.117 -6.31824 483 1.5332C475.441 4.8093 469.7 12.2999 464 18L431 51L317 165L272 210C268.35 213.65 264.811 217.48 261 220.961C259.355 222.464 257.453 224.437 255 223.793C249.933 222.462 244.601 214.601 241 211L207 177L81 51L45 15C36.145 6.14496 27.6519 -2.72021 14 0.53241z"/>
<path style="fill:#ffffff; stroke:none;" d="M26 0C49.0483 16.0024 68.1409 39.1409 88 59L196 167L240 211C243.511 214.511 250.641 224.793 256 224.793C261.359 224.793 268.489 214.511 272 211L313 170L434 49L466 17C471.978 11.0218 477.715 3.64548 486 1C481.785 -0.768738 476.536 0 472 0L446 0L352 0L26 0M498 0C503.819 4.04037 508.718 6.85495 511 14C512.769 9.78348 512 4.54111 512 0L498 0M0 26L0 486C16.0024 462.952 39.1409 443.859 59 424L167 316L211 272C214.511 268.489 224.793 261.359 224.793 256C224.793 250.641 214.511 243.511 211 240L167 196L59 88C39.1409 68.1409 16.0024 49.0483 0 26M511 26C508.354 34.2847 500.978 40.0219 495 46L463 78L342 199L301 240C297.489 243.511 287.207 250.641 287.207 256C287.207 261.359 297.489 268.489 301 272L342 313L463 434L495 466C500.978 471.978 508.355 477.715 511 486C512.552 482.301 512 477.983 512 474L512 451L512 371L512 127L512 57C512 47.9403 514.507 34.3575 511 26M26 511C30.2151 512.769 35.4645 512 40 512L66 512L160 512L486 512C462.952 495.998 443.859 472.859 424 453L316 345L272 301C268.489 297.489 261.359 287.207 256 287.207C250.641 287.207 243.511 297.489 240 301L199 342L78 463L46 495C40.0219 500.978 34.2847 508.355 26 511M0 498L0 512L14 512C7.83232 507.718 4.2822 504.168 0 498M511 498C508.918 504.52 504.52 508.918 498 511C502.217 512.769 507.459 512 512 512C512 507.459 512.769 502.217 511 498z"/>
</svg>
