<?xml version="1.0" standalone="no"?>
<!DOCTYPE svg PUBLIC "-//W3C//DTD SVG 20010904//EN"
 "http://www.w3.org/TR/2001/REC-SVG-20010904/DTD/svg10.dtd">
<svg version="1.0" xmlns="http://www.w3.org/2000/svg"
 width="367.000000pt" height="118.000000pt" viewBox="0 0 367.000000 118.000000"
 preserveAspectRatio="xMidYMid meet">

<g transform="translate(0.000000,118.000000) scale(0.100000,-0.100000)"
fill="#000000" stroke="none">
<path d="M187 1166 c-66 -18 -117 -62 -152 -132 -27 -53 -30 -69 -30 -150 0
-81 3 -97 30 -149 38 -75 95 -119 172 -136 111 -23 210 18 260 108 30 53 35
108 9 108 -12 0 -24 -15 -37 -49 -32 -86 -87 -127 -169 -128 -70 0 -114 17
-154 62 -124 137 -60 398 104 428 94 17 176 -18 207 -90 13 -28 23 -38 40 -38
30 0 30 22 -1 75 -47 80 -172 121 -279 91z"/>
<path d="M1540 1060 c0 -103 -7 -130 -27 -96 -4 8 -25 24 -46 36 -30 18 -48
22 -93 18 -67 -6 -100 -28 -136 -94 -54 -96 -26 -255 53 -303 71 -43 162 -35
214 20 l30 31 5 -34 c3 -21 11 -34 23 -36 16 -3 17 16 17 282 0 279 0 286 -20
286 -19 0 -20 -7 -20 -110z m-74 -99 c98 -60 90 -266 -12 -315 -104 -49 -199
30 -198 164 1 61 30 129 66 154 31 22 106 20 144 -3z"/>
<path d="M1684 1156 c-11 -30 0 -61 24 -64 21 -3 23 0 20 35 -3 40 -32 59 -44
29z"/>
<path d="M1860 1070 l0 -60 -35 0 c-28 0 -35 -4 -35 -20 0 -16 7 -20 35 -20
l35 0 0 -163 c0 -196 4 -207 81 -207 42 0 49 3 49 19 0 16 -8 20 -37 23 l-38
3 -3 163 -2 162 40 0 c33 0 40 3 40 20 0 17 -7 20 -40 20 l-40 0 0 60 c0 57
-1 60 -25 60 -24 0 -25 -3 -25 -60z"/>
<path d="M723 1009 c-18 -5 -48 -26 -68 -46 l-35 -36 0 41 c0 35 -3 42 -20 42
-19 0 -20 -7 -20 -205 0 -194 1 -205 19 -205 27 0 31 18 31 151 0 83 4 128 14
147 16 31 82 72 116 72 16 0 21 5 18 22 -4 26 -13 29 -55 17z"/>
<path d="M886 997 c-88 -49 -120 -203 -66 -312 33 -65 73 -88 154 -89 71 -1
118 21 153 74 29 42 29 60 0 60 -15 0 -26 -9 -36 -30 -17 -40 -51 -61 -104
-67 -71 -7 -128 41 -142 120 l-7 37 156 0 156 0 0 40 c0 72 -42 145 -102 176
-41 21 -117 17 -162 -9z m168 -48 c33 -29 62 -92 50 -111 -6 -10 -264 -11
-264 0 0 33 26 85 56 111 28 25 44 31 79 31 35 0 51 -6 79 -31z"/>
<path d="M1684 997 c-2 -7 -3 -98 -2 -202 3 -188 3 -190 26 -193 l22 -3 0 205
c0 200 -1 206 -20 206 -11 0 -23 -6 -26 -13z"/>
</g>
</svg>
