<svg xmlns="http://www.w3.org/2000/svg" xmlns:xlink="http://www.w3.org/1999/xlink" width="53.395" height="35.409" viewBox="0 0 53.395 35.409">
  <defs>
    <filter id="Icon_color" x="0" y="0" width="53.395" height="35.409" filterUnits="userSpaceOnUse">
      <feOffset dy="4" input="SourceAlpha"/>
      <feGaussianBlur stdDeviation="4" result="blur"/>
      <feFlood flood-opacity="0.251"/>
      <feComposite operator="in" in2="blur"/>
      <feComposite in="SourceGraphic"/>
    </filter>
  </defs>
  <g transform="matrix(1, 0, 0, 1, 0, 0)" filter="url(#Icon_color)">
    <path id="Icon_color-2" data-name="Icon color" d="M16.462,11.047a2.364,2.364,0,0,1-1.3.362h-.931a2.43,2.43,0,0,1-1.3-.362L.362,2.582A.722.722,0,0,1,0,2a.722.722,0,0,1,.362-.585L2.1.244A1.54,1.54,0,0,1,2.96,0a1.54,1.54,0,0,1,.858.242L14.7,7.572,25.578.244a1.675,1.675,0,0,1,1.74,0l1.715,1.169A.722.722,0,0,1,29.4,2a.722.722,0,0,1-.362.585Z" transform="translate(12 8)" fill="#1ab16a"/>
  </g>
</svg>
